<mxfile host="app.diagrams.net" agent="Mozilla/5.0 (X11; Linux x86_64) AppleWebKit/537.36 (KHTML, like Gecko) Chrome/132.0.0.0 YaBrowser/25.2.0.0 Safari/537.36" version="26.2.14">
  <diagram name="Страница — 1" id="hNYmJZwj9RlARED_Ek0S">
    <mxGraphModel dx="1426" dy="804" grid="1" gridSize="10" guides="1" tooltips="1" connect="1" arrows="1" fold="1" page="1" pageScale="1" pageWidth="1169" pageHeight="827" math="0" shadow="0">
      <root>
        <mxCell id="0" />
        <mxCell id="1" parent="0" />
        <mxCell id="g6O5Ks7iFWTSRpHq8Kov-1" value="ship" style="shape=table;startSize=30;container=1;collapsible=0;childLayout=tableLayout;strokeColor=default;fontSize=12;fontStyle=1" vertex="1" parent="1">
          <mxGeometry x="54" y="156" width="230" height="180" as="geometry" />
        </mxCell>
        <mxCell id="g6O5Ks7iFWTSRpHq8Kov-2" value="" style="shape=tableRow;horizontal=0;startSize=0;swimlaneHead=0;swimlaneBody=0;strokeColor=inherit;top=0;left=0;bottom=0;right=0;collapsible=0;dropTarget=0;fillColor=none;points=[[0,0.5],[1,0.5]];portConstraint=eastwest;fontSize=16;" vertex="1" parent="g6O5Ks7iFWTSRpHq8Kov-1">
          <mxGeometry y="30" width="230" height="30" as="geometry" />
        </mxCell>
        <mxCell id="g6O5Ks7iFWTSRpHq8Kov-3" value="&lt;font&gt;&lt;b&gt;PK&lt;/b&gt;&lt;/font&gt;" style="shape=partialRectangle;html=1;whiteSpace=wrap;connectable=0;strokeColor=inherit;overflow=hidden;fillColor=none;top=0;left=0;bottom=0;right=0;pointerEvents=1;fontSize=12;align=center;spacing=6;" vertex="1" parent="g6O5Ks7iFWTSRpHq8Kov-2">
          <mxGeometry width="28" height="30" as="geometry">
            <mxRectangle width="28" height="30" as="alternateBounds" />
          </mxGeometry>
        </mxCell>
        <mxCell id="g6O5Ks7iFWTSRpHq8Kov-4" value="&lt;font&gt;id&lt;/font&gt;" style="shape=partialRectangle;html=1;whiteSpace=wrap;connectable=0;strokeColor=inherit;overflow=hidden;fillColor=none;top=0;left=0;bottom=0;right=0;pointerEvents=1;fontSize=12;align=left;spacingTop=0;spacing=6;" vertex="1" parent="g6O5Ks7iFWTSRpHq8Kov-2">
          <mxGeometry x="28" width="102" height="30" as="geometry">
            <mxRectangle width="102" height="30" as="alternateBounds" />
          </mxGeometry>
        </mxCell>
        <mxCell id="g6O5Ks7iFWTSRpHq8Kov-5" value="INT" style="shape=partialRectangle;html=1;whiteSpace=wrap;connectable=0;strokeColor=inherit;overflow=hidden;fillColor=none;top=0;left=0;bottom=0;right=0;pointerEvents=1;fontSize=12;align=left;spacing=6;" vertex="1" parent="g6O5Ks7iFWTSRpHq8Kov-2">
          <mxGeometry x="130" width="100" height="30" as="geometry">
            <mxRectangle width="100" height="30" as="alternateBounds" />
          </mxGeometry>
        </mxCell>
        <mxCell id="g6O5Ks7iFWTSRpHq8Kov-6" value="" style="shape=tableRow;horizontal=0;startSize=0;swimlaneHead=0;swimlaneBody=0;strokeColor=inherit;top=0;left=0;bottom=0;right=0;collapsible=0;dropTarget=0;fillColor=none;points=[[0,0.5],[1,0.5]];portConstraint=eastwest;fontSize=16;" vertex="1" parent="g6O5Ks7iFWTSRpHq8Kov-1">
          <mxGeometry y="60" width="230" height="30" as="geometry" />
        </mxCell>
        <mxCell id="g6O5Ks7iFWTSRpHq8Kov-7" value="" style="shape=partialRectangle;html=1;whiteSpace=wrap;connectable=0;strokeColor=inherit;overflow=hidden;fillColor=none;top=0;left=0;bottom=0;right=0;pointerEvents=1;fontSize=12;align=left;spacing=6;" vertex="1" parent="g6O5Ks7iFWTSRpHq8Kov-6">
          <mxGeometry width="28" height="30" as="geometry">
            <mxRectangle width="28" height="30" as="alternateBounds" />
          </mxGeometry>
        </mxCell>
        <mxCell id="g6O5Ks7iFWTSRpHq8Kov-8" value="name" style="shape=partialRectangle;html=1;whiteSpace=wrap;connectable=0;strokeColor=inherit;overflow=hidden;fillColor=none;top=0;left=0;bottom=0;right=0;pointerEvents=1;fontSize=12;align=left;spacing=6;" vertex="1" parent="g6O5Ks7iFWTSRpHq8Kov-6">
          <mxGeometry x="28" width="102" height="30" as="geometry">
            <mxRectangle width="102" height="30" as="alternateBounds" />
          </mxGeometry>
        </mxCell>
        <mxCell id="g6O5Ks7iFWTSRpHq8Kov-9" value="VARCHAR(50)" style="shape=partialRectangle;html=1;whiteSpace=wrap;connectable=0;strokeColor=inherit;overflow=hidden;fillColor=none;top=0;left=0;bottom=0;right=0;pointerEvents=1;fontSize=12;align=left;spacing=6;" vertex="1" parent="g6O5Ks7iFWTSRpHq8Kov-6">
          <mxGeometry x="130" width="100" height="30" as="geometry">
            <mxRectangle width="100" height="30" as="alternateBounds" />
          </mxGeometry>
        </mxCell>
        <mxCell id="g6O5Ks7iFWTSRpHq8Kov-10" value="" style="shape=tableRow;horizontal=0;startSize=0;swimlaneHead=0;swimlaneBody=0;strokeColor=inherit;top=0;left=0;bottom=0;right=0;collapsible=0;dropTarget=0;fillColor=none;points=[[0,0.5],[1,0.5]];portConstraint=eastwest;fontSize=16;" vertex="1" parent="g6O5Ks7iFWTSRpHq8Kov-1">
          <mxGeometry y="90" width="230" height="30" as="geometry" />
        </mxCell>
        <mxCell id="g6O5Ks7iFWTSRpHq8Kov-11" value="" style="shape=partialRectangle;html=1;whiteSpace=wrap;connectable=0;strokeColor=inherit;overflow=hidden;fillColor=none;top=0;left=0;bottom=0;right=0;pointerEvents=1;fontSize=12;align=left;spacing=6;" vertex="1" parent="g6O5Ks7iFWTSRpHq8Kov-10">
          <mxGeometry width="28" height="30" as="geometry">
            <mxRectangle width="28" height="30" as="alternateBounds" />
          </mxGeometry>
        </mxCell>
        <mxCell id="g6O5Ks7iFWTSRpHq8Kov-12" value="description" style="shape=partialRectangle;html=1;whiteSpace=wrap;connectable=0;strokeColor=inherit;overflow=hidden;fillColor=none;top=0;left=0;bottom=0;right=0;pointerEvents=1;fontSize=12;align=left;spacing=6;" vertex="1" parent="g6O5Ks7iFWTSRpHq8Kov-10">
          <mxGeometry x="28" width="102" height="30" as="geometry">
            <mxRectangle width="102" height="30" as="alternateBounds" />
          </mxGeometry>
        </mxCell>
        <mxCell id="g6O5Ks7iFWTSRpHq8Kov-13" value="TEXT" style="shape=partialRectangle;html=1;whiteSpace=wrap;connectable=0;strokeColor=inherit;overflow=hidden;fillColor=none;top=0;left=0;bottom=0;right=0;pointerEvents=1;fontSize=12;align=left;spacing=6;" vertex="1" parent="g6O5Ks7iFWTSRpHq8Kov-10">
          <mxGeometry x="130" width="100" height="30" as="geometry">
            <mxRectangle width="100" height="30" as="alternateBounds" />
          </mxGeometry>
        </mxCell>
        <mxCell id="g6O5Ks7iFWTSRpHq8Kov-14" style="shape=tableRow;horizontal=0;startSize=0;swimlaneHead=0;swimlaneBody=0;strokeColor=inherit;top=0;left=0;bottom=0;right=0;collapsible=0;dropTarget=0;fillColor=none;points=[[0,0.5],[1,0.5]];portConstraint=eastwest;fontSize=16;" vertex="1" parent="g6O5Ks7iFWTSRpHq8Kov-1">
          <mxGeometry y="120" width="230" height="30" as="geometry" />
        </mxCell>
        <mxCell id="g6O5Ks7iFWTSRpHq8Kov-15" style="shape=partialRectangle;html=1;whiteSpace=wrap;connectable=0;strokeColor=inherit;overflow=hidden;fillColor=none;top=0;left=0;bottom=0;right=0;pointerEvents=1;fontSize=12;align=left;spacing=6;" vertex="1" parent="g6O5Ks7iFWTSRpHq8Kov-14">
          <mxGeometry width="28" height="30" as="geometry">
            <mxRectangle width="28" height="30" as="alternateBounds" />
          </mxGeometry>
        </mxCell>
        <mxCell id="g6O5Ks7iFWTSRpHq8Kov-16" value="max_speed" style="shape=partialRectangle;html=1;whiteSpace=wrap;connectable=0;strokeColor=inherit;overflow=hidden;fillColor=none;top=0;left=0;bottom=0;right=0;pointerEvents=1;fontSize=12;align=left;spacing=6;" vertex="1" parent="g6O5Ks7iFWTSRpHq8Kov-14">
          <mxGeometry x="28" width="102" height="30" as="geometry">
            <mxRectangle width="102" height="30" as="alternateBounds" />
          </mxGeometry>
        </mxCell>
        <mxCell id="g6O5Ks7iFWTSRpHq8Kov-17" value="FLOAT" style="shape=partialRectangle;html=1;whiteSpace=wrap;connectable=0;strokeColor=inherit;overflow=hidden;fillColor=none;top=0;left=0;bottom=0;right=0;pointerEvents=1;fontSize=12;align=left;spacing=6;" vertex="1" parent="g6O5Ks7iFWTSRpHq8Kov-14">
          <mxGeometry x="130" width="100" height="30" as="geometry">
            <mxRectangle width="100" height="30" as="alternateBounds" />
          </mxGeometry>
        </mxCell>
        <mxCell id="g6O5Ks7iFWTSRpHq8Kov-18" style="shape=tableRow;horizontal=0;startSize=0;swimlaneHead=0;swimlaneBody=0;strokeColor=inherit;top=0;left=0;bottom=0;right=0;collapsible=0;dropTarget=0;fillColor=none;points=[[0,0.5],[1,0.5]];portConstraint=eastwest;fontSize=16;" vertex="1" parent="g6O5Ks7iFWTSRpHq8Kov-1">
          <mxGeometry y="150" width="230" height="30" as="geometry" />
        </mxCell>
        <mxCell id="g6O5Ks7iFWTSRpHq8Kov-19" style="shape=partialRectangle;html=1;whiteSpace=wrap;connectable=0;strokeColor=inherit;overflow=hidden;fillColor=none;top=0;left=0;bottom=0;right=0;pointerEvents=1;fontSize=12;align=left;spacing=6;" vertex="1" parent="g6O5Ks7iFWTSRpHq8Kov-18">
          <mxGeometry width="28" height="30" as="geometry">
            <mxRectangle width="28" height="30" as="alternateBounds" />
          </mxGeometry>
        </mxCell>
        <mxCell id="g6O5Ks7iFWTSRpHq8Kov-20" value="owner_id" style="shape=partialRectangle;html=1;whiteSpace=wrap;connectable=0;strokeColor=inherit;overflow=hidden;fillColor=none;top=0;left=0;bottom=0;right=0;pointerEvents=1;fontSize=12;align=left;spacing=6;" vertex="1" parent="g6O5Ks7iFWTSRpHq8Kov-18">
          <mxGeometry x="28" width="102" height="30" as="geometry">
            <mxRectangle width="102" height="30" as="alternateBounds" />
          </mxGeometry>
        </mxCell>
        <mxCell id="g6O5Ks7iFWTSRpHq8Kov-21" value="INT" style="shape=partialRectangle;html=1;whiteSpace=wrap;connectable=0;strokeColor=inherit;overflow=hidden;fillColor=none;top=0;left=0;bottom=0;right=0;pointerEvents=1;fontSize=12;align=left;spacing=6;" vertex="1" parent="g6O5Ks7iFWTSRpHq8Kov-18">
          <mxGeometry x="130" width="100" height="30" as="geometry">
            <mxRectangle width="100" height="30" as="alternateBounds" />
          </mxGeometry>
        </mxCell>
        <mxCell id="g6O5Ks7iFWTSRpHq8Kov-22" value="robot" style="shape=table;startSize=30;container=1;collapsible=0;childLayout=tableLayout;strokeColor=default;fontSize=12;fontStyle=1" vertex="1" parent="1">
          <mxGeometry x="55" y="486" width="210" height="180" as="geometry" />
        </mxCell>
        <mxCell id="g6O5Ks7iFWTSRpHq8Kov-23" value="" style="shape=tableRow;horizontal=0;startSize=0;swimlaneHead=0;swimlaneBody=0;strokeColor=inherit;top=0;left=0;bottom=0;right=0;collapsible=0;dropTarget=0;fillColor=none;points=[[0,0.5],[1,0.5]];portConstraint=eastwest;fontSize=16;" vertex="1" parent="g6O5Ks7iFWTSRpHq8Kov-22">
          <mxGeometry y="30" width="210" height="30" as="geometry" />
        </mxCell>
        <mxCell id="g6O5Ks7iFWTSRpHq8Kov-24" value="&lt;font&gt;&lt;b&gt;PK&lt;/b&gt;&lt;/font&gt;" style="shape=partialRectangle;html=1;whiteSpace=wrap;connectable=0;strokeColor=inherit;overflow=hidden;fillColor=none;top=0;left=0;bottom=0;right=0;pointerEvents=1;fontSize=12;align=center;spacing=6;" vertex="1" parent="g6O5Ks7iFWTSRpHq8Kov-23">
          <mxGeometry width="28" height="30" as="geometry">
            <mxRectangle width="28" height="30" as="alternateBounds" />
          </mxGeometry>
        </mxCell>
        <mxCell id="g6O5Ks7iFWTSRpHq8Kov-25" value="&lt;font&gt;id&lt;/font&gt;" style="shape=partialRectangle;html=1;whiteSpace=wrap;connectable=0;strokeColor=inherit;overflow=hidden;fillColor=none;top=0;left=0;bottom=0;right=0;pointerEvents=1;fontSize=12;align=left;spacingTop=0;spacing=6;" vertex="1" parent="g6O5Ks7iFWTSRpHq8Kov-23">
          <mxGeometry x="28" width="82" height="30" as="geometry">
            <mxRectangle width="82" height="30" as="alternateBounds" />
          </mxGeometry>
        </mxCell>
        <mxCell id="g6O5Ks7iFWTSRpHq8Kov-26" value="INT" style="shape=partialRectangle;html=1;whiteSpace=wrap;connectable=0;strokeColor=inherit;overflow=hidden;fillColor=none;top=0;left=0;bottom=0;right=0;pointerEvents=1;fontSize=12;align=left;spacing=6;" vertex="1" parent="g6O5Ks7iFWTSRpHq8Kov-23">
          <mxGeometry x="110" width="100" height="30" as="geometry">
            <mxRectangle width="100" height="30" as="alternateBounds" />
          </mxGeometry>
        </mxCell>
        <mxCell id="g6O5Ks7iFWTSRpHq8Kov-27" value="" style="shape=tableRow;horizontal=0;startSize=0;swimlaneHead=0;swimlaneBody=0;strokeColor=inherit;top=0;left=0;bottom=0;right=0;collapsible=0;dropTarget=0;fillColor=none;points=[[0,0.5],[1,0.5]];portConstraint=eastwest;fontSize=16;" vertex="1" parent="g6O5Ks7iFWTSRpHq8Kov-22">
          <mxGeometry y="60" width="210" height="30" as="geometry" />
        </mxCell>
        <mxCell id="g6O5Ks7iFWTSRpHq8Kov-28" value="" style="shape=partialRectangle;html=1;whiteSpace=wrap;connectable=0;strokeColor=inherit;overflow=hidden;fillColor=none;top=0;left=0;bottom=0;right=0;pointerEvents=1;fontSize=12;align=left;spacing=6;" vertex="1" parent="g6O5Ks7iFWTSRpHq8Kov-27">
          <mxGeometry width="28" height="30" as="geometry">
            <mxRectangle width="28" height="30" as="alternateBounds" />
          </mxGeometry>
        </mxCell>
        <mxCell id="g6O5Ks7iFWTSRpHq8Kov-29" value="name" style="shape=partialRectangle;html=1;whiteSpace=wrap;connectable=0;strokeColor=inherit;overflow=hidden;fillColor=none;top=0;left=0;bottom=0;right=0;pointerEvents=1;fontSize=12;align=left;spacing=6;" vertex="1" parent="g6O5Ks7iFWTSRpHq8Kov-27">
          <mxGeometry x="28" width="82" height="30" as="geometry">
            <mxRectangle width="82" height="30" as="alternateBounds" />
          </mxGeometry>
        </mxCell>
        <mxCell id="g6O5Ks7iFWTSRpHq8Kov-30" value="VARCHAR(50)" style="shape=partialRectangle;html=1;whiteSpace=wrap;connectable=0;strokeColor=inherit;overflow=hidden;fillColor=none;top=0;left=0;bottom=0;right=0;pointerEvents=1;fontSize=12;align=left;spacing=6;" vertex="1" parent="g6O5Ks7iFWTSRpHq8Kov-27">
          <mxGeometry x="110" width="100" height="30" as="geometry">
            <mxRectangle width="100" height="30" as="alternateBounds" />
          </mxGeometry>
        </mxCell>
        <mxCell id="g6O5Ks7iFWTSRpHq8Kov-31" value="" style="shape=tableRow;horizontal=0;startSize=0;swimlaneHead=0;swimlaneBody=0;strokeColor=inherit;top=0;left=0;bottom=0;right=0;collapsible=0;dropTarget=0;fillColor=none;points=[[0,0.5],[1,0.5]];portConstraint=eastwest;fontSize=16;" vertex="1" parent="g6O5Ks7iFWTSRpHq8Kov-22">
          <mxGeometry y="90" width="210" height="30" as="geometry" />
        </mxCell>
        <mxCell id="g6O5Ks7iFWTSRpHq8Kov-32" value="" style="shape=partialRectangle;html=1;whiteSpace=wrap;connectable=0;strokeColor=inherit;overflow=hidden;fillColor=none;top=0;left=0;bottom=0;right=0;pointerEvents=1;fontSize=12;align=left;spacing=6;" vertex="1" parent="g6O5Ks7iFWTSRpHq8Kov-31">
          <mxGeometry width="28" height="30" as="geometry">
            <mxRectangle width="28" height="30" as="alternateBounds" />
          </mxGeometry>
        </mxCell>
        <mxCell id="g6O5Ks7iFWTSRpHq8Kov-33" value="description" style="shape=partialRectangle;html=1;whiteSpace=wrap;connectable=0;strokeColor=inherit;overflow=hidden;fillColor=none;top=0;left=0;bottom=0;right=0;pointerEvents=1;fontSize=12;align=left;spacing=6;" vertex="1" parent="g6O5Ks7iFWTSRpHq8Kov-31">
          <mxGeometry x="28" width="82" height="30" as="geometry">
            <mxRectangle width="82" height="30" as="alternateBounds" />
          </mxGeometry>
        </mxCell>
        <mxCell id="g6O5Ks7iFWTSRpHq8Kov-34" value="TEXT" style="shape=partialRectangle;html=1;whiteSpace=wrap;connectable=0;strokeColor=inherit;overflow=hidden;fillColor=none;top=0;left=0;bottom=0;right=0;pointerEvents=1;fontSize=12;align=left;spacing=6;" vertex="1" parent="g6O5Ks7iFWTSRpHq8Kov-31">
          <mxGeometry x="110" width="100" height="30" as="geometry">
            <mxRectangle width="100" height="30" as="alternateBounds" />
          </mxGeometry>
        </mxCell>
        <mxCell id="g6O5Ks7iFWTSRpHq8Kov-35" style="shape=tableRow;horizontal=0;startSize=0;swimlaneHead=0;swimlaneBody=0;strokeColor=inherit;top=0;left=0;bottom=0;right=0;collapsible=0;dropTarget=0;fillColor=none;points=[[0,0.5],[1,0.5]];portConstraint=eastwest;fontSize=16;" vertex="1" parent="g6O5Ks7iFWTSRpHq8Kov-22">
          <mxGeometry y="120" width="210" height="30" as="geometry" />
        </mxCell>
        <mxCell id="g6O5Ks7iFWTSRpHq8Kov-36" style="shape=partialRectangle;html=1;whiteSpace=wrap;connectable=0;strokeColor=inherit;overflow=hidden;fillColor=none;top=0;left=0;bottom=0;right=0;pointerEvents=1;fontSize=12;align=left;spacing=6;" vertex="1" parent="g6O5Ks7iFWTSRpHq8Kov-35">
          <mxGeometry width="28" height="30" as="geometry">
            <mxRectangle width="28" height="30" as="alternateBounds" />
          </mxGeometry>
        </mxCell>
        <mxCell id="g6O5Ks7iFWTSRpHq8Kov-37" value="power" style="shape=partialRectangle;html=1;whiteSpace=wrap;connectable=0;strokeColor=inherit;overflow=hidden;fillColor=none;top=0;left=0;bottom=0;right=0;pointerEvents=1;fontSize=12;align=left;spacing=6;" vertex="1" parent="g6O5Ks7iFWTSRpHq8Kov-35">
          <mxGeometry x="28" width="82" height="30" as="geometry">
            <mxRectangle width="82" height="30" as="alternateBounds" />
          </mxGeometry>
        </mxCell>
        <mxCell id="g6O5Ks7iFWTSRpHq8Kov-38" value="FLOAT" style="shape=partialRectangle;html=1;whiteSpace=wrap;connectable=0;strokeColor=inherit;overflow=hidden;fillColor=none;top=0;left=0;bottom=0;right=0;pointerEvents=1;fontSize=12;align=left;spacing=6;" vertex="1" parent="g6O5Ks7iFWTSRpHq8Kov-35">
          <mxGeometry x="110" width="100" height="30" as="geometry">
            <mxRectangle width="100" height="30" as="alternateBounds" />
          </mxGeometry>
        </mxCell>
        <mxCell id="g6O5Ks7iFWTSRpHq8Kov-39" style="shape=tableRow;horizontal=0;startSize=0;swimlaneHead=0;swimlaneBody=0;strokeColor=inherit;top=0;left=0;bottom=0;right=0;collapsible=0;dropTarget=0;fillColor=none;points=[[0,0.5],[1,0.5]];portConstraint=eastwest;fontSize=16;" vertex="1" parent="g6O5Ks7iFWTSRpHq8Kov-22">
          <mxGeometry y="150" width="210" height="30" as="geometry" />
        </mxCell>
        <mxCell id="g6O5Ks7iFWTSRpHq8Kov-40" style="shape=partialRectangle;html=1;whiteSpace=wrap;connectable=0;strokeColor=inherit;overflow=hidden;fillColor=none;top=0;left=0;bottom=0;right=0;pointerEvents=1;fontSize=12;align=left;spacing=6;" vertex="1" parent="g6O5Ks7iFWTSRpHq8Kov-39">
          <mxGeometry width="28" height="30" as="geometry">
            <mxRectangle width="28" height="30" as="alternateBounds" />
          </mxGeometry>
        </mxCell>
        <mxCell id="g6O5Ks7iFWTSRpHq8Kov-41" value="master_id" style="shape=partialRectangle;html=1;whiteSpace=wrap;connectable=0;strokeColor=inherit;overflow=hidden;fillColor=none;top=0;left=0;bottom=0;right=0;pointerEvents=1;fontSize=12;align=left;spacing=6;" vertex="1" parent="g6O5Ks7iFWTSRpHq8Kov-39">
          <mxGeometry x="28" width="82" height="30" as="geometry">
            <mxRectangle width="82" height="30" as="alternateBounds" />
          </mxGeometry>
        </mxCell>
        <mxCell id="g6O5Ks7iFWTSRpHq8Kov-42" value="INT" style="shape=partialRectangle;html=1;whiteSpace=wrap;connectable=0;strokeColor=inherit;overflow=hidden;fillColor=none;top=0;left=0;bottom=0;right=0;pointerEvents=1;fontSize=12;align=left;spacing=6;" vertex="1" parent="g6O5Ks7iFWTSRpHq8Kov-39">
          <mxGeometry x="110" width="100" height="30" as="geometry">
            <mxRectangle width="100" height="30" as="alternateBounds" />
          </mxGeometry>
        </mxCell>
        <mxCell id="g6O5Ks7iFWTSRpHq8Kov-43" value="master" style="shape=table;startSize=30;container=1;collapsible=0;childLayout=tableLayout;strokeColor=default;fontSize=12;fontStyle=1" vertex="1" parent="1">
          <mxGeometry x="324" y="311" width="190" height="180" as="geometry" />
        </mxCell>
        <mxCell id="g6O5Ks7iFWTSRpHq8Kov-44" value="" style="shape=tableRow;horizontal=0;startSize=0;swimlaneHead=0;swimlaneBody=0;strokeColor=inherit;top=0;left=0;bottom=0;right=0;collapsible=0;dropTarget=0;fillColor=none;points=[[0,0.5],[1,0.5]];portConstraint=eastwest;fontSize=16;" vertex="1" parent="g6O5Ks7iFWTSRpHq8Kov-43">
          <mxGeometry y="30" width="190" height="30" as="geometry" />
        </mxCell>
        <mxCell id="g6O5Ks7iFWTSRpHq8Kov-45" value="&lt;font&gt;&lt;span&gt;PK&lt;/span&gt;&lt;/font&gt;" style="shape=partialRectangle;html=1;whiteSpace=wrap;connectable=0;strokeColor=inherit;overflow=hidden;fillColor=none;top=0;left=0;bottom=0;right=0;pointerEvents=1;fontSize=12;align=center;spacing=6;fontStyle=1" vertex="1" parent="g6O5Ks7iFWTSRpHq8Kov-44">
          <mxGeometry width="28" height="30" as="geometry">
            <mxRectangle width="28" height="30" as="alternateBounds" />
          </mxGeometry>
        </mxCell>
        <mxCell id="g6O5Ks7iFWTSRpHq8Kov-46" value="&lt;font&gt;id&lt;/font&gt;" style="shape=partialRectangle;html=1;whiteSpace=wrap;connectable=0;strokeColor=inherit;overflow=hidden;fillColor=none;top=0;left=0;bottom=0;right=0;pointerEvents=1;fontSize=12;align=left;spacingTop=0;spacing=6;" vertex="1" parent="g6O5Ks7iFWTSRpHq8Kov-44">
          <mxGeometry x="28" width="62" height="30" as="geometry">
            <mxRectangle width="62" height="30" as="alternateBounds" />
          </mxGeometry>
        </mxCell>
        <mxCell id="g6O5Ks7iFWTSRpHq8Kov-47" value="INT" style="shape=partialRectangle;html=1;whiteSpace=wrap;connectable=0;strokeColor=inherit;overflow=hidden;fillColor=none;top=0;left=0;bottom=0;right=0;pointerEvents=1;fontSize=12;align=left;spacing=6;" vertex="1" parent="g6O5Ks7iFWTSRpHq8Kov-44">
          <mxGeometry x="90" width="100" height="30" as="geometry">
            <mxRectangle width="100" height="30" as="alternateBounds" />
          </mxGeometry>
        </mxCell>
        <mxCell id="g6O5Ks7iFWTSRpHq8Kov-48" value="" style="shape=tableRow;horizontal=0;startSize=0;swimlaneHead=0;swimlaneBody=0;strokeColor=inherit;top=0;left=0;bottom=0;right=0;collapsible=0;dropTarget=0;fillColor=none;points=[[0,0.5],[1,0.5]];portConstraint=eastwest;fontSize=16;" vertex="1" parent="g6O5Ks7iFWTSRpHq8Kov-43">
          <mxGeometry y="60" width="190" height="30" as="geometry" />
        </mxCell>
        <mxCell id="g6O5Ks7iFWTSRpHq8Kov-49" value="" style="shape=partialRectangle;html=1;whiteSpace=wrap;connectable=0;strokeColor=inherit;overflow=hidden;fillColor=none;top=0;left=0;bottom=0;right=0;pointerEvents=1;fontSize=12;align=left;spacing=6;" vertex="1" parent="g6O5Ks7iFWTSRpHq8Kov-48">
          <mxGeometry width="28" height="30" as="geometry">
            <mxRectangle width="28" height="30" as="alternateBounds" />
          </mxGeometry>
        </mxCell>
        <mxCell id="g6O5Ks7iFWTSRpHq8Kov-50" value="name" style="shape=partialRectangle;html=1;whiteSpace=wrap;connectable=0;strokeColor=inherit;overflow=hidden;fillColor=none;top=0;left=0;bottom=0;right=0;pointerEvents=1;fontSize=12;align=left;spacing=6;" vertex="1" parent="g6O5Ks7iFWTSRpHq8Kov-48">
          <mxGeometry x="28" width="62" height="30" as="geometry">
            <mxRectangle width="62" height="30" as="alternateBounds" />
          </mxGeometry>
        </mxCell>
        <mxCell id="g6O5Ks7iFWTSRpHq8Kov-51" value="VARCHAR(50)" style="shape=partialRectangle;html=1;whiteSpace=wrap;connectable=0;strokeColor=inherit;overflow=hidden;fillColor=none;top=0;left=0;bottom=0;right=0;pointerEvents=1;fontSize=12;align=left;spacing=6;" vertex="1" parent="g6O5Ks7iFWTSRpHq8Kov-48">
          <mxGeometry x="90" width="100" height="30" as="geometry">
            <mxRectangle width="100" height="30" as="alternateBounds" />
          </mxGeometry>
        </mxCell>
        <mxCell id="g6O5Ks7iFWTSRpHq8Kov-52" value="" style="shape=tableRow;horizontal=0;startSize=0;swimlaneHead=0;swimlaneBody=0;strokeColor=inherit;top=0;left=0;bottom=0;right=0;collapsible=0;dropTarget=0;fillColor=none;points=[[0,0.5],[1,0.5]];portConstraint=eastwest;fontSize=16;" vertex="1" parent="g6O5Ks7iFWTSRpHq8Kov-43">
          <mxGeometry y="90" width="190" height="30" as="geometry" />
        </mxCell>
        <mxCell id="g6O5Ks7iFWTSRpHq8Kov-53" value="" style="shape=partialRectangle;html=1;whiteSpace=wrap;connectable=0;strokeColor=inherit;overflow=hidden;fillColor=none;top=0;left=0;bottom=0;right=0;pointerEvents=1;fontSize=12;align=left;spacing=6;" vertex="1" parent="g6O5Ks7iFWTSRpHq8Kov-52">
          <mxGeometry width="28" height="30" as="geometry">
            <mxRectangle width="28" height="30" as="alternateBounds" />
          </mxGeometry>
        </mxCell>
        <mxCell id="g6O5Ks7iFWTSRpHq8Kov-54" value="is_rogue" style="shape=partialRectangle;html=1;whiteSpace=wrap;connectable=0;strokeColor=inherit;overflow=hidden;fillColor=none;top=0;left=0;bottom=0;right=0;pointerEvents=1;fontSize=12;align=left;spacing=6;" vertex="1" parent="g6O5Ks7iFWTSRpHq8Kov-52">
          <mxGeometry x="28" width="62" height="30" as="geometry">
            <mxRectangle width="62" height="30" as="alternateBounds" />
          </mxGeometry>
        </mxCell>
        <mxCell id="g6O5Ks7iFWTSRpHq8Kov-55" value="BOOLEAN" style="shape=partialRectangle;html=1;whiteSpace=wrap;connectable=0;strokeColor=inherit;overflow=hidden;fillColor=none;top=0;left=0;bottom=0;right=0;pointerEvents=1;fontSize=12;align=left;spacing=6;" vertex="1" parent="g6O5Ks7iFWTSRpHq8Kov-52">
          <mxGeometry x="90" width="100" height="30" as="geometry">
            <mxRectangle width="100" height="30" as="alternateBounds" />
          </mxGeometry>
        </mxCell>
        <mxCell id="g6O5Ks7iFWTSRpHq8Kov-56" style="shape=tableRow;horizontal=0;startSize=0;swimlaneHead=0;swimlaneBody=0;strokeColor=inherit;top=0;left=0;bottom=0;right=0;collapsible=0;dropTarget=0;fillColor=none;points=[[0,0.5],[1,0.5]];portConstraint=eastwest;fontSize=16;" vertex="1" parent="g6O5Ks7iFWTSRpHq8Kov-43">
          <mxGeometry y="120" width="190" height="30" as="geometry" />
        </mxCell>
        <mxCell id="g6O5Ks7iFWTSRpHq8Kov-57" style="shape=partialRectangle;html=1;whiteSpace=wrap;connectable=0;strokeColor=inherit;overflow=hidden;fillColor=none;top=0;left=0;bottom=0;right=0;pointerEvents=1;fontSize=12;align=left;spacing=6;" vertex="1" parent="g6O5Ks7iFWTSRpHq8Kov-56">
          <mxGeometry width="28" height="30" as="geometry">
            <mxRectangle width="28" height="30" as="alternateBounds" />
          </mxGeometry>
        </mxCell>
        <mxCell id="g6O5Ks7iFWTSRpHq8Kov-58" value="birthday" style="shape=partialRectangle;html=1;whiteSpace=wrap;connectable=0;strokeColor=inherit;overflow=hidden;fillColor=none;top=0;left=0;bottom=0;right=0;pointerEvents=1;fontSize=12;align=left;spacing=6;" vertex="1" parent="g6O5Ks7iFWTSRpHq8Kov-56">
          <mxGeometry x="28" width="62" height="30" as="geometry">
            <mxRectangle width="62" height="30" as="alternateBounds" />
          </mxGeometry>
        </mxCell>
        <mxCell id="g6O5Ks7iFWTSRpHq8Kov-59" value="DATE" style="shape=partialRectangle;html=1;whiteSpace=wrap;connectable=0;strokeColor=inherit;overflow=hidden;fillColor=none;top=0;left=0;bottom=0;right=0;pointerEvents=1;fontSize=12;align=left;spacing=6;" vertex="1" parent="g6O5Ks7iFWTSRpHq8Kov-56">
          <mxGeometry x="90" width="100" height="30" as="geometry">
            <mxRectangle width="100" height="30" as="alternateBounds" />
          </mxGeometry>
        </mxCell>
        <mxCell id="g6O5Ks7iFWTSRpHq8Kov-60" style="shape=tableRow;horizontal=0;startSize=0;swimlaneHead=0;swimlaneBody=0;strokeColor=inherit;top=0;left=0;bottom=0;right=0;collapsible=0;dropTarget=0;fillColor=none;points=[[0,0.5],[1,0.5]];portConstraint=eastwest;fontSize=16;" vertex="1" parent="g6O5Ks7iFWTSRpHq8Kov-43">
          <mxGeometry y="150" width="190" height="30" as="geometry" />
        </mxCell>
        <mxCell id="g6O5Ks7iFWTSRpHq8Kov-61" style="shape=partialRectangle;html=1;whiteSpace=wrap;connectable=0;strokeColor=inherit;overflow=hidden;fillColor=none;top=0;left=0;bottom=0;right=0;pointerEvents=1;fontSize=12;align=left;spacing=6;" vertex="1" parent="g6O5Ks7iFWTSRpHq8Kov-60">
          <mxGeometry width="28" height="30" as="geometry">
            <mxRectangle width="28" height="30" as="alternateBounds" />
          </mxGeometry>
        </mxCell>
        <mxCell id="g6O5Ks7iFWTSRpHq8Kov-62" value="planet_id" style="shape=partialRectangle;html=1;whiteSpace=wrap;connectable=0;strokeColor=inherit;overflow=hidden;fillColor=none;top=0;left=0;bottom=0;right=0;pointerEvents=1;fontSize=12;align=left;spacing=6;" vertex="1" parent="g6O5Ks7iFWTSRpHq8Kov-60">
          <mxGeometry x="28" width="62" height="30" as="geometry">
            <mxRectangle width="62" height="30" as="alternateBounds" />
          </mxGeometry>
        </mxCell>
        <mxCell id="g6O5Ks7iFWTSRpHq8Kov-63" value="INT" style="shape=partialRectangle;html=1;whiteSpace=wrap;connectable=0;strokeColor=inherit;overflow=hidden;fillColor=none;top=0;left=0;bottom=0;right=0;pointerEvents=1;fontSize=12;align=left;spacing=6;" vertex="1" parent="g6O5Ks7iFWTSRpHq8Kov-60">
          <mxGeometry x="90" width="100" height="30" as="geometry">
            <mxRectangle width="100" height="30" as="alternateBounds" />
          </mxGeometry>
        </mxCell>
        <mxCell id="g6O5Ks7iFWTSRpHq8Kov-64" value="system" style="shape=table;startSize=30;container=1;collapsible=0;childLayout=tableLayout;strokeColor=default;fontSize=12;fontStyle=1" vertex="1" parent="1">
          <mxGeometry x="924" y="431" width="190" height="120" as="geometry" />
        </mxCell>
        <mxCell id="g6O5Ks7iFWTSRpHq8Kov-65" value="" style="shape=tableRow;horizontal=0;startSize=0;swimlaneHead=0;swimlaneBody=0;strokeColor=inherit;top=0;left=0;bottom=0;right=0;collapsible=0;dropTarget=0;fillColor=none;points=[[0,0.5],[1,0.5]];portConstraint=eastwest;fontSize=16;" vertex="1" parent="g6O5Ks7iFWTSRpHq8Kov-64">
          <mxGeometry y="30" width="190" height="30" as="geometry" />
        </mxCell>
        <mxCell id="g6O5Ks7iFWTSRpHq8Kov-66" value="&lt;font&gt;&lt;span&gt;PK&lt;/span&gt;&lt;/font&gt;" style="shape=partialRectangle;html=1;whiteSpace=wrap;connectable=0;strokeColor=inherit;overflow=hidden;fillColor=none;top=0;left=0;bottom=0;right=0;pointerEvents=1;fontSize=12;align=center;spacing=6;fontStyle=1" vertex="1" parent="g6O5Ks7iFWTSRpHq8Kov-65">
          <mxGeometry width="28" height="30" as="geometry">
            <mxRectangle width="28" height="30" as="alternateBounds" />
          </mxGeometry>
        </mxCell>
        <mxCell id="g6O5Ks7iFWTSRpHq8Kov-67" value="&lt;font&gt;ID&lt;/font&gt;" style="shape=partialRectangle;html=1;whiteSpace=wrap;connectable=0;strokeColor=inherit;overflow=hidden;fillColor=none;top=0;left=0;bottom=0;right=0;pointerEvents=1;fontSize=12;align=left;spacingTop=0;spacing=6;" vertex="1" parent="g6O5Ks7iFWTSRpHq8Kov-65">
          <mxGeometry x="28" width="72" height="30" as="geometry">
            <mxRectangle width="72" height="30" as="alternateBounds" />
          </mxGeometry>
        </mxCell>
        <mxCell id="g6O5Ks7iFWTSRpHq8Kov-68" value="INT" style="shape=partialRectangle;html=1;whiteSpace=wrap;connectable=0;strokeColor=inherit;overflow=hidden;fillColor=none;top=0;left=0;bottom=0;right=0;pointerEvents=1;fontSize=12;align=left;spacing=6;" vertex="1" parent="g6O5Ks7iFWTSRpHq8Kov-65">
          <mxGeometry x="100" width="90" height="30" as="geometry">
            <mxRectangle width="90" height="30" as="alternateBounds" />
          </mxGeometry>
        </mxCell>
        <mxCell id="g6O5Ks7iFWTSRpHq8Kov-69" value="" style="shape=tableRow;horizontal=0;startSize=0;swimlaneHead=0;swimlaneBody=0;strokeColor=inherit;top=0;left=0;bottom=0;right=0;collapsible=0;dropTarget=0;fillColor=none;points=[[0,0.5],[1,0.5]];portConstraint=eastwest;fontSize=16;" vertex="1" parent="g6O5Ks7iFWTSRpHq8Kov-64">
          <mxGeometry y="60" width="190" height="30" as="geometry" />
        </mxCell>
        <mxCell id="g6O5Ks7iFWTSRpHq8Kov-70" value="" style="shape=partialRectangle;html=1;whiteSpace=wrap;connectable=0;strokeColor=inherit;overflow=hidden;fillColor=none;top=0;left=0;bottom=0;right=0;pointerEvents=1;fontSize=12;align=left;spacing=6;" vertex="1" parent="g6O5Ks7iFWTSRpHq8Kov-69">
          <mxGeometry width="28" height="30" as="geometry">
            <mxRectangle width="28" height="30" as="alternateBounds" />
          </mxGeometry>
        </mxCell>
        <mxCell id="g6O5Ks7iFWTSRpHq8Kov-71" value="name" style="shape=partialRectangle;html=1;whiteSpace=wrap;connectable=0;strokeColor=inherit;overflow=hidden;fillColor=none;top=0;left=0;bottom=0;right=0;pointerEvents=1;fontSize=12;align=left;spacing=6;" vertex="1" parent="g6O5Ks7iFWTSRpHq8Kov-69">
          <mxGeometry x="28" width="72" height="30" as="geometry">
            <mxRectangle width="72" height="30" as="alternateBounds" />
          </mxGeometry>
        </mxCell>
        <mxCell id="g6O5Ks7iFWTSRpHq8Kov-72" value="VARCHAR(50)" style="shape=partialRectangle;html=1;whiteSpace=wrap;connectable=0;strokeColor=inherit;overflow=hidden;fillColor=none;top=0;left=0;bottom=0;right=0;pointerEvents=1;fontSize=12;align=left;spacing=6;" vertex="1" parent="g6O5Ks7iFWTSRpHq8Kov-69">
          <mxGeometry x="100" width="90" height="30" as="geometry">
            <mxRectangle width="90" height="30" as="alternateBounds" />
          </mxGeometry>
        </mxCell>
        <mxCell id="g6O5Ks7iFWTSRpHq8Kov-73" value="" style="shape=tableRow;horizontal=0;startSize=0;swimlaneHead=0;swimlaneBody=0;strokeColor=inherit;top=0;left=0;bottom=0;right=0;collapsible=0;dropTarget=0;fillColor=none;points=[[0,0.5],[1,0.5]];portConstraint=eastwest;fontSize=16;" vertex="1" parent="g6O5Ks7iFWTSRpHq8Kov-64">
          <mxGeometry y="90" width="190" height="30" as="geometry" />
        </mxCell>
        <mxCell id="g6O5Ks7iFWTSRpHq8Kov-74" value="" style="shape=partialRectangle;html=1;whiteSpace=wrap;connectable=0;strokeColor=inherit;overflow=hidden;fillColor=none;top=0;left=0;bottom=0;right=0;pointerEvents=1;fontSize=12;align=left;spacing=6;" vertex="1" parent="g6O5Ks7iFWTSRpHq8Kov-73">
          <mxGeometry width="28" height="30" as="geometry">
            <mxRectangle width="28" height="30" as="alternateBounds" />
          </mxGeometry>
        </mxCell>
        <mxCell id="g6O5Ks7iFWTSRpHq8Kov-75" value="description" style="shape=partialRectangle;html=1;whiteSpace=wrap;connectable=0;strokeColor=inherit;overflow=hidden;fillColor=none;top=0;left=0;bottom=0;right=0;pointerEvents=1;fontSize=12;align=left;spacing=6;" vertex="1" parent="g6O5Ks7iFWTSRpHq8Kov-73">
          <mxGeometry x="28" width="72" height="30" as="geometry">
            <mxRectangle width="72" height="30" as="alternateBounds" />
          </mxGeometry>
        </mxCell>
        <mxCell id="g6O5Ks7iFWTSRpHq8Kov-76" value="TEXT" style="shape=partialRectangle;html=1;whiteSpace=wrap;connectable=0;strokeColor=inherit;overflow=hidden;fillColor=none;top=0;left=0;bottom=0;right=0;pointerEvents=1;fontSize=12;align=left;spacing=6;" vertex="1" parent="g6O5Ks7iFWTSRpHq8Kov-73">
          <mxGeometry x="100" width="90" height="30" as="geometry">
            <mxRectangle width="90" height="30" as="alternateBounds" />
          </mxGeometry>
        </mxCell>
        <mxCell id="g6O5Ks7iFWTSRpHq8Kov-77" value="planet" style="shape=table;startSize=30;container=1;collapsible=0;childLayout=tableLayout;strokeColor=default;fontSize=12;fontStyle=1" vertex="1" parent="1">
          <mxGeometry x="654" y="311" width="200" height="180" as="geometry" />
        </mxCell>
        <mxCell id="g6O5Ks7iFWTSRpHq8Kov-78" value="" style="shape=tableRow;horizontal=0;startSize=0;swimlaneHead=0;swimlaneBody=0;strokeColor=inherit;top=0;left=0;bottom=0;right=0;collapsible=0;dropTarget=0;fillColor=none;points=[[0,0.5],[1,0.5]];portConstraint=eastwest;fontSize=16;" vertex="1" parent="g6O5Ks7iFWTSRpHq8Kov-77">
          <mxGeometry y="30" width="200" height="30" as="geometry" />
        </mxCell>
        <mxCell id="g6O5Ks7iFWTSRpHq8Kov-79" value="&lt;font&gt;&lt;span&gt;PK&lt;/span&gt;&lt;/font&gt;" style="shape=partialRectangle;html=1;whiteSpace=wrap;connectable=0;strokeColor=inherit;overflow=hidden;fillColor=none;top=0;left=0;bottom=0;right=0;pointerEvents=1;fontSize=12;align=center;spacing=6;fontStyle=1" vertex="1" parent="g6O5Ks7iFWTSRpHq8Kov-78">
          <mxGeometry width="31" height="30" as="geometry">
            <mxRectangle width="31" height="30" as="alternateBounds" />
          </mxGeometry>
        </mxCell>
        <mxCell id="g6O5Ks7iFWTSRpHq8Kov-80" value="&lt;font&gt;ID&lt;/font&gt;" style="shape=partialRectangle;html=1;whiteSpace=wrap;connectable=0;strokeColor=inherit;overflow=hidden;fillColor=none;top=0;left=0;bottom=0;right=0;pointerEvents=1;fontSize=12;align=left;spacingTop=0;spacing=6;" vertex="1" parent="g6O5Ks7iFWTSRpHq8Kov-78">
          <mxGeometry x="31" width="69" height="30" as="geometry">
            <mxRectangle width="69" height="30" as="alternateBounds" />
          </mxGeometry>
        </mxCell>
        <mxCell id="g6O5Ks7iFWTSRpHq8Kov-81" value="INT" style="shape=partialRectangle;html=1;whiteSpace=wrap;connectable=0;strokeColor=inherit;overflow=hidden;fillColor=none;top=0;left=0;bottom=0;right=0;pointerEvents=1;fontSize=12;align=left;spacing=6;" vertex="1" parent="g6O5Ks7iFWTSRpHq8Kov-78">
          <mxGeometry x="100" width="100" height="30" as="geometry">
            <mxRectangle width="100" height="30" as="alternateBounds" />
          </mxGeometry>
        </mxCell>
        <mxCell id="g6O5Ks7iFWTSRpHq8Kov-82" value="" style="shape=tableRow;horizontal=0;startSize=0;swimlaneHead=0;swimlaneBody=0;strokeColor=inherit;top=0;left=0;bottom=0;right=0;collapsible=0;dropTarget=0;fillColor=none;points=[[0,0.5],[1,0.5]];portConstraint=eastwest;fontSize=16;" vertex="1" parent="g6O5Ks7iFWTSRpHq8Kov-77">
          <mxGeometry y="60" width="200" height="30" as="geometry" />
        </mxCell>
        <mxCell id="g6O5Ks7iFWTSRpHq8Kov-83" value="" style="shape=partialRectangle;html=1;whiteSpace=wrap;connectable=0;strokeColor=inherit;overflow=hidden;fillColor=none;top=0;left=0;bottom=0;right=0;pointerEvents=1;fontSize=12;align=left;spacing=6;" vertex="1" parent="g6O5Ks7iFWTSRpHq8Kov-82">
          <mxGeometry width="31" height="30" as="geometry">
            <mxRectangle width="31" height="30" as="alternateBounds" />
          </mxGeometry>
        </mxCell>
        <mxCell id="g6O5Ks7iFWTSRpHq8Kov-84" value="name" style="shape=partialRectangle;html=1;whiteSpace=wrap;connectable=0;strokeColor=inherit;overflow=hidden;fillColor=none;top=0;left=0;bottom=0;right=0;pointerEvents=1;fontSize=12;align=left;spacing=6;" vertex="1" parent="g6O5Ks7iFWTSRpHq8Kov-82">
          <mxGeometry x="31" width="69" height="30" as="geometry">
            <mxRectangle width="69" height="30" as="alternateBounds" />
          </mxGeometry>
        </mxCell>
        <mxCell id="g6O5Ks7iFWTSRpHq8Kov-85" value="VARCHAR(50)" style="shape=partialRectangle;html=1;whiteSpace=wrap;connectable=0;strokeColor=inherit;overflow=hidden;fillColor=none;top=0;left=0;bottom=0;right=0;pointerEvents=1;fontSize=12;align=left;spacing=6;" vertex="1" parent="g6O5Ks7iFWTSRpHq8Kov-82">
          <mxGeometry x="100" width="100" height="30" as="geometry">
            <mxRectangle width="100" height="30" as="alternateBounds" />
          </mxGeometry>
        </mxCell>
        <mxCell id="g6O5Ks7iFWTSRpHq8Kov-86" value="" style="shape=tableRow;horizontal=0;startSize=0;swimlaneHead=0;swimlaneBody=0;strokeColor=inherit;top=0;left=0;bottom=0;right=0;collapsible=0;dropTarget=0;fillColor=none;points=[[0,0.5],[1,0.5]];portConstraint=eastwest;fontSize=16;" vertex="1" parent="g6O5Ks7iFWTSRpHq8Kov-77">
          <mxGeometry y="90" width="200" height="30" as="geometry" />
        </mxCell>
        <mxCell id="g6O5Ks7iFWTSRpHq8Kov-87" value="" style="shape=partialRectangle;html=1;whiteSpace=wrap;connectable=0;strokeColor=inherit;overflow=hidden;fillColor=none;top=0;left=0;bottom=0;right=0;pointerEvents=1;fontSize=12;align=left;spacing=6;" vertex="1" parent="g6O5Ks7iFWTSRpHq8Kov-86">
          <mxGeometry width="31" height="30" as="geometry">
            <mxRectangle width="31" height="30" as="alternateBounds" />
          </mxGeometry>
        </mxCell>
        <mxCell id="g6O5Ks7iFWTSRpHq8Kov-88" value="description" style="shape=partialRectangle;html=1;whiteSpace=wrap;connectable=0;strokeColor=inherit;overflow=hidden;fillColor=none;top=0;left=0;bottom=0;right=0;pointerEvents=1;fontSize=12;align=left;spacing=6;" vertex="1" parent="g6O5Ks7iFWTSRpHq8Kov-86">
          <mxGeometry x="31" width="69" height="30" as="geometry">
            <mxRectangle width="69" height="30" as="alternateBounds" />
          </mxGeometry>
        </mxCell>
        <mxCell id="g6O5Ks7iFWTSRpHq8Kov-89" value="TEXT" style="shape=partialRectangle;html=1;whiteSpace=wrap;connectable=0;strokeColor=inherit;overflow=hidden;fillColor=none;top=0;left=0;bottom=0;right=0;pointerEvents=1;fontSize=12;align=left;spacing=6;" vertex="1" parent="g6O5Ks7iFWTSRpHq8Kov-86">
          <mxGeometry x="100" width="100" height="30" as="geometry">
            <mxRectangle width="100" height="30" as="alternateBounds" />
          </mxGeometry>
        </mxCell>
        <mxCell id="g6O5Ks7iFWTSRpHq8Kov-90" style="shape=tableRow;horizontal=0;startSize=0;swimlaneHead=0;swimlaneBody=0;strokeColor=inherit;top=0;left=0;bottom=0;right=0;collapsible=0;dropTarget=0;fillColor=none;points=[[0,0.5],[1,0.5]];portConstraint=eastwest;fontSize=16;" vertex="1" parent="g6O5Ks7iFWTSRpHq8Kov-77">
          <mxGeometry y="120" width="200" height="30" as="geometry" />
        </mxCell>
        <mxCell id="g6O5Ks7iFWTSRpHq8Kov-91" style="shape=partialRectangle;html=1;whiteSpace=wrap;connectable=0;strokeColor=inherit;overflow=hidden;fillColor=none;top=0;left=0;bottom=0;right=0;pointerEvents=1;fontSize=12;align=left;spacing=6;" vertex="1" parent="g6O5Ks7iFWTSRpHq8Kov-90">
          <mxGeometry width="31" height="30" as="geometry">
            <mxRectangle width="31" height="30" as="alternateBounds" />
          </mxGeometry>
        </mxCell>
        <mxCell id="g6O5Ks7iFWTSRpHq8Kov-92" value="size" style="shape=partialRectangle;html=1;whiteSpace=wrap;connectable=0;strokeColor=inherit;overflow=hidden;fillColor=none;top=0;left=0;bottom=0;right=0;pointerEvents=1;fontSize=12;align=left;spacing=6;" vertex="1" parent="g6O5Ks7iFWTSRpHq8Kov-90">
          <mxGeometry x="31" width="69" height="30" as="geometry">
            <mxRectangle width="69" height="30" as="alternateBounds" />
          </mxGeometry>
        </mxCell>
        <mxCell id="g6O5Ks7iFWTSRpHq8Kov-93" value="FLOAT" style="shape=partialRectangle;html=1;whiteSpace=wrap;connectable=0;strokeColor=inherit;overflow=hidden;fillColor=none;top=0;left=0;bottom=0;right=0;pointerEvents=1;fontSize=12;align=left;spacing=6;" vertex="1" parent="g6O5Ks7iFWTSRpHq8Kov-90">
          <mxGeometry x="100" width="100" height="30" as="geometry">
            <mxRectangle width="100" height="30" as="alternateBounds" />
          </mxGeometry>
        </mxCell>
        <mxCell id="g6O5Ks7iFWTSRpHq8Kov-94" style="shape=tableRow;horizontal=0;startSize=0;swimlaneHead=0;swimlaneBody=0;strokeColor=inherit;top=0;left=0;bottom=0;right=0;collapsible=0;dropTarget=0;fillColor=none;points=[[0,0.5],[1,0.5]];portConstraint=eastwest;fontSize=16;" vertex="1" parent="g6O5Ks7iFWTSRpHq8Kov-77">
          <mxGeometry y="150" width="200" height="30" as="geometry" />
        </mxCell>
        <mxCell id="g6O5Ks7iFWTSRpHq8Kov-95" style="shape=partialRectangle;html=1;whiteSpace=wrap;connectable=0;strokeColor=inherit;overflow=hidden;fillColor=none;top=0;left=0;bottom=0;right=0;pointerEvents=1;fontSize=12;align=left;spacing=6;" vertex="1" parent="g6O5Ks7iFWTSRpHq8Kov-94">
          <mxGeometry width="31" height="30" as="geometry">
            <mxRectangle width="31" height="30" as="alternateBounds" />
          </mxGeometry>
        </mxCell>
        <mxCell id="g6O5Ks7iFWTSRpHq8Kov-96" value="system_id" style="shape=partialRectangle;html=1;whiteSpace=wrap;connectable=0;strokeColor=inherit;overflow=hidden;fillColor=none;top=0;left=0;bottom=0;right=0;pointerEvents=1;fontSize=12;align=left;spacing=6;" vertex="1" parent="g6O5Ks7iFWTSRpHq8Kov-94">
          <mxGeometry x="31" width="69" height="30" as="geometry">
            <mxRectangle width="69" height="30" as="alternateBounds" />
          </mxGeometry>
        </mxCell>
        <mxCell id="g6O5Ks7iFWTSRpHq8Kov-97" value="INT" style="shape=partialRectangle;html=1;whiteSpace=wrap;connectable=0;strokeColor=inherit;overflow=hidden;fillColor=none;top=0;left=0;bottom=0;right=0;pointerEvents=1;fontSize=12;align=left;spacing=6;" vertex="1" parent="g6O5Ks7iFWTSRpHq8Kov-94">
          <mxGeometry x="100" width="100" height="30" as="geometry">
            <mxRectangle width="100" height="30" as="alternateBounds" />
          </mxGeometry>
        </mxCell>
        <mxCell id="g6O5Ks7iFWTSRpHq8Kov-98" value="star" style="shape=table;startSize=30;container=1;collapsible=0;childLayout=tableLayout;strokeColor=default;fontSize=12;fontStyle=1" vertex="1" parent="1">
          <mxGeometry x="404" y="551" width="190" height="120" as="geometry" />
        </mxCell>
        <mxCell id="g6O5Ks7iFWTSRpHq8Kov-99" value="" style="shape=tableRow;horizontal=0;startSize=0;swimlaneHead=0;swimlaneBody=0;strokeColor=inherit;top=0;left=0;bottom=0;right=0;collapsible=0;dropTarget=0;fillColor=none;points=[[0,0.5],[1,0.5]];portConstraint=eastwest;fontSize=16;" vertex="1" parent="g6O5Ks7iFWTSRpHq8Kov-98">
          <mxGeometry y="30" width="190" height="30" as="geometry" />
        </mxCell>
        <mxCell id="g6O5Ks7iFWTSRpHq8Kov-100" value="&lt;font&gt;&lt;span&gt;PK&lt;/span&gt;&lt;/font&gt;" style="shape=partialRectangle;html=1;whiteSpace=wrap;connectable=0;strokeColor=inherit;overflow=hidden;fillColor=none;top=0;left=0;bottom=0;right=0;pointerEvents=1;fontSize=12;align=center;spacing=6;fontStyle=1" vertex="1" parent="g6O5Ks7iFWTSRpHq8Kov-99">
          <mxGeometry width="28" height="30" as="geometry">
            <mxRectangle width="28" height="30" as="alternateBounds" />
          </mxGeometry>
        </mxCell>
        <mxCell id="g6O5Ks7iFWTSRpHq8Kov-101" value="&lt;font&gt;ID&lt;/font&gt;" style="shape=partialRectangle;html=1;whiteSpace=wrap;connectable=0;strokeColor=inherit;overflow=hidden;fillColor=none;top=0;left=0;bottom=0;right=0;pointerEvents=1;fontSize=12;align=left;spacingTop=0;spacing=6;" vertex="1" parent="g6O5Ks7iFWTSRpHq8Kov-99">
          <mxGeometry x="28" width="72" height="30" as="geometry">
            <mxRectangle width="72" height="30" as="alternateBounds" />
          </mxGeometry>
        </mxCell>
        <mxCell id="g6O5Ks7iFWTSRpHq8Kov-102" value="INT" style="shape=partialRectangle;html=1;whiteSpace=wrap;connectable=0;strokeColor=inherit;overflow=hidden;fillColor=none;top=0;left=0;bottom=0;right=0;pointerEvents=1;fontSize=12;align=left;spacing=6;" vertex="1" parent="g6O5Ks7iFWTSRpHq8Kov-99">
          <mxGeometry x="100" width="90" height="30" as="geometry">
            <mxRectangle width="90" height="30" as="alternateBounds" />
          </mxGeometry>
        </mxCell>
        <mxCell id="g6O5Ks7iFWTSRpHq8Kov-103" value="" style="shape=tableRow;horizontal=0;startSize=0;swimlaneHead=0;swimlaneBody=0;strokeColor=inherit;top=0;left=0;bottom=0;right=0;collapsible=0;dropTarget=0;fillColor=none;points=[[0,0.5],[1,0.5]];portConstraint=eastwest;fontSize=16;" vertex="1" parent="g6O5Ks7iFWTSRpHq8Kov-98">
          <mxGeometry y="60" width="190" height="30" as="geometry" />
        </mxCell>
        <mxCell id="g6O5Ks7iFWTSRpHq8Kov-104" value="" style="shape=partialRectangle;html=1;whiteSpace=wrap;connectable=0;strokeColor=inherit;overflow=hidden;fillColor=none;top=0;left=0;bottom=0;right=0;pointerEvents=1;fontSize=12;align=left;spacing=6;" vertex="1" parent="g6O5Ks7iFWTSRpHq8Kov-103">
          <mxGeometry width="28" height="30" as="geometry">
            <mxRectangle width="28" height="30" as="alternateBounds" />
          </mxGeometry>
        </mxCell>
        <mxCell id="g6O5Ks7iFWTSRpHq8Kov-105" value="name" style="shape=partialRectangle;html=1;whiteSpace=wrap;connectable=0;strokeColor=inherit;overflow=hidden;fillColor=none;top=0;left=0;bottom=0;right=0;pointerEvents=1;fontSize=12;align=left;spacing=6;" vertex="1" parent="g6O5Ks7iFWTSRpHq8Kov-103">
          <mxGeometry x="28" width="72" height="30" as="geometry">
            <mxRectangle width="72" height="30" as="alternateBounds" />
          </mxGeometry>
        </mxCell>
        <mxCell id="g6O5Ks7iFWTSRpHq8Kov-106" value="VARCHAR(50)" style="shape=partialRectangle;html=1;whiteSpace=wrap;connectable=0;strokeColor=inherit;overflow=hidden;fillColor=none;top=0;left=0;bottom=0;right=0;pointerEvents=1;fontSize=12;align=left;spacing=6;" vertex="1" parent="g6O5Ks7iFWTSRpHq8Kov-103">
          <mxGeometry x="100" width="90" height="30" as="geometry">
            <mxRectangle width="90" height="30" as="alternateBounds" />
          </mxGeometry>
        </mxCell>
        <mxCell id="g6O5Ks7iFWTSRpHq8Kov-107" value="" style="shape=tableRow;horizontal=0;startSize=0;swimlaneHead=0;swimlaneBody=0;strokeColor=inherit;top=0;left=0;bottom=0;right=0;collapsible=0;dropTarget=0;fillColor=none;points=[[0,0.5],[1,0.5]];portConstraint=eastwest;fontSize=16;" vertex="1" parent="g6O5Ks7iFWTSRpHq8Kov-98">
          <mxGeometry y="90" width="190" height="30" as="geometry" />
        </mxCell>
        <mxCell id="g6O5Ks7iFWTSRpHq8Kov-108" value="" style="shape=partialRectangle;html=1;whiteSpace=wrap;connectable=0;strokeColor=inherit;overflow=hidden;fillColor=none;top=0;left=0;bottom=0;right=0;pointerEvents=1;fontSize=12;align=left;spacing=6;" vertex="1" parent="g6O5Ks7iFWTSRpHq8Kov-107">
          <mxGeometry width="28" height="30" as="geometry">
            <mxRectangle width="28" height="30" as="alternateBounds" />
          </mxGeometry>
        </mxCell>
        <mxCell id="g6O5Ks7iFWTSRpHq8Kov-109" value="description" style="shape=partialRectangle;html=1;whiteSpace=wrap;connectable=0;strokeColor=inherit;overflow=hidden;fillColor=none;top=0;left=0;bottom=0;right=0;pointerEvents=1;fontSize=12;align=left;spacing=6;" vertex="1" parent="g6O5Ks7iFWTSRpHq8Kov-107">
          <mxGeometry x="28" width="72" height="30" as="geometry">
            <mxRectangle width="72" height="30" as="alternateBounds" />
          </mxGeometry>
        </mxCell>
        <mxCell id="g6O5Ks7iFWTSRpHq8Kov-110" value="TEXT" style="shape=partialRectangle;html=1;whiteSpace=wrap;connectable=0;strokeColor=inherit;overflow=hidden;fillColor=none;top=0;left=0;bottom=0;right=0;pointerEvents=1;fontSize=12;align=left;spacing=6;" vertex="1" parent="g6O5Ks7iFWTSRpHq8Kov-107">
          <mxGeometry x="100" width="90" height="30" as="geometry">
            <mxRectangle width="90" height="30" as="alternateBounds" />
          </mxGeometry>
        </mxCell>
        <mxCell id="g6O5Ks7iFWTSRpHq8Kov-111" value="system_and_stars" style="shape=table;startSize=30;container=1;collapsible=0;childLayout=tableLayout;strokeColor=default;fontSize=12;fontStyle=1" vertex="1" parent="1">
          <mxGeometry x="684" y="546" width="160" height="100" as="geometry" />
        </mxCell>
        <mxCell id="g6O5Ks7iFWTSRpHq8Kov-112" value="" style="shape=tableRow;horizontal=0;startSize=0;swimlaneHead=0;swimlaneBody=0;strokeColor=inherit;top=0;left=0;bottom=0;right=0;collapsible=0;dropTarget=0;fillColor=none;points=[[0,0.5],[1,0.5]];portConstraint=eastwest;fontSize=16;" vertex="1" parent="g6O5Ks7iFWTSRpHq8Kov-111">
          <mxGeometry y="30" width="160" height="40" as="geometry" />
        </mxCell>
        <mxCell id="g6O5Ks7iFWTSRpHq8Kov-113" value="PK FK" style="shape=partialRectangle;html=1;whiteSpace=wrap;connectable=0;strokeColor=inherit;overflow=hidden;fillColor=none;top=0;left=0;bottom=0;right=0;pointerEvents=1;fontSize=12;align=center;spacing=6;fontStyle=1" vertex="1" parent="g6O5Ks7iFWTSRpHq8Kov-112">
          <mxGeometry width="32" height="40" as="geometry">
            <mxRectangle width="32" height="40" as="alternateBounds" />
          </mxGeometry>
        </mxCell>
        <mxCell id="g6O5Ks7iFWTSRpHq8Kov-114" value="star_id" style="shape=partialRectangle;html=1;whiteSpace=wrap;connectable=0;strokeColor=inherit;overflow=hidden;fillColor=none;top=0;left=0;bottom=0;right=0;pointerEvents=1;fontSize=12;align=left;spacingTop=0;spacing=6;" vertex="1" parent="g6O5Ks7iFWTSRpHq8Kov-112">
          <mxGeometry x="32" width="82" height="40" as="geometry">
            <mxRectangle width="82" height="40" as="alternateBounds" />
          </mxGeometry>
        </mxCell>
        <mxCell id="g6O5Ks7iFWTSRpHq8Kov-115" value="INT" style="shape=partialRectangle;html=1;whiteSpace=wrap;connectable=0;strokeColor=inherit;overflow=hidden;fillColor=none;top=0;left=0;bottom=0;right=0;pointerEvents=1;fontSize=12;align=left;spacing=6;" vertex="1" parent="g6O5Ks7iFWTSRpHq8Kov-112">
          <mxGeometry x="114" width="46" height="40" as="geometry">
            <mxRectangle width="46" height="40" as="alternateBounds" />
          </mxGeometry>
        </mxCell>
        <mxCell id="g6O5Ks7iFWTSRpHq8Kov-116" value="" style="shape=tableRow;horizontal=0;startSize=0;swimlaneHead=0;swimlaneBody=0;strokeColor=inherit;top=0;left=0;bottom=0;right=0;collapsible=0;dropTarget=0;fillColor=none;points=[[0,0.5],[1,0.5]];portConstraint=eastwest;fontSize=16;" vertex="1" parent="g6O5Ks7iFWTSRpHq8Kov-111">
          <mxGeometry y="70" width="160" height="30" as="geometry" />
        </mxCell>
        <mxCell id="g6O5Ks7iFWTSRpHq8Kov-117" value="FK" style="shape=partialRectangle;html=1;whiteSpace=wrap;connectable=0;strokeColor=inherit;overflow=hidden;fillColor=none;top=0;left=0;bottom=0;right=0;pointerEvents=1;fontSize=12;align=center;spacing=6;fontStyle=1" vertex="1" parent="g6O5Ks7iFWTSRpHq8Kov-116">
          <mxGeometry width="32" height="30" as="geometry">
            <mxRectangle width="32" height="30" as="alternateBounds" />
          </mxGeometry>
        </mxCell>
        <mxCell id="g6O5Ks7iFWTSRpHq8Kov-118" value="system_id" style="shape=partialRectangle;html=1;whiteSpace=wrap;connectable=0;strokeColor=inherit;overflow=hidden;fillColor=none;top=0;left=0;bottom=0;right=0;pointerEvents=1;fontSize=12;align=left;spacing=6;" vertex="1" parent="g6O5Ks7iFWTSRpHq8Kov-116">
          <mxGeometry x="32" width="82" height="30" as="geometry">
            <mxRectangle width="82" height="30" as="alternateBounds" />
          </mxGeometry>
        </mxCell>
        <mxCell id="g6O5Ks7iFWTSRpHq8Kov-119" value="INT" style="shape=partialRectangle;html=1;whiteSpace=wrap;connectable=0;strokeColor=inherit;overflow=hidden;fillColor=none;top=0;left=0;bottom=0;right=0;pointerEvents=1;fontSize=12;align=left;spacing=6;" vertex="1" parent="g6O5Ks7iFWTSRpHq8Kov-116">
          <mxGeometry x="114" width="46" height="30" as="geometry">
            <mxRectangle width="46" height="30" as="alternateBounds" />
          </mxGeometry>
        </mxCell>
        <mxCell id="g6O5Ks7iFWTSRpHq8Kov-120" style="edgeStyle=orthogonalEdgeStyle;rounded=0;orthogonalLoop=1;jettySize=auto;html=1;entryX=1;entryY=0.5;entryDx=0;entryDy=0;endArrow=ERmandOne;endFill=0;startArrow=ERzeroToMany;startFill=0;" edge="1" parent="1" source="g6O5Ks7iFWTSRpHq8Kov-112" target="g6O5Ks7iFWTSRpHq8Kov-99">
          <mxGeometry relative="1" as="geometry">
            <Array as="points">
              <mxPoint x="604" y="596" />
            </Array>
          </mxGeometry>
        </mxCell>
        <mxCell id="g6O5Ks7iFWTSRpHq8Kov-121" style="edgeStyle=orthogonalEdgeStyle;rounded=0;orthogonalLoop=1;jettySize=auto;html=1;endArrow=ERmandOne;endFill=0;startArrow=ERzeroToMany;startFill=0;" edge="1" parent="1" source="g6O5Ks7iFWTSRpHq8Kov-116">
          <mxGeometry relative="1" as="geometry">
            <Array as="points">
              <mxPoint x="894" y="631" />
              <mxPoint x="894" y="481" />
              <mxPoint x="924" y="481" />
            </Array>
            <mxPoint x="924" y="481" as="targetPoint" />
          </mxGeometry>
        </mxCell>
        <mxCell id="g6O5Ks7iFWTSRpHq8Kov-122" style="edgeStyle=orthogonalEdgeStyle;rounded=0;orthogonalLoop=1;jettySize=auto;html=1;entryX=0;entryY=0.5;entryDx=0;entryDy=0;endArrow=ERzeroToOne;endFill=0;startArrow=ERzeroToMany;startFill=0;" edge="1" parent="1" source="g6O5Ks7iFWTSRpHq8Kov-18" target="g6O5Ks7iFWTSRpHq8Kov-44">
          <mxGeometry relative="1" as="geometry" />
        </mxCell>
        <mxCell id="g6O5Ks7iFWTSRpHq8Kov-123" style="edgeStyle=orthogonalEdgeStyle;rounded=0;orthogonalLoop=1;jettySize=auto;html=1;endArrow=ERmandOne;endFill=0;startArrow=ERzeroToMany;startFill=0;" edge="1" parent="1" source="g6O5Ks7iFWTSRpHq8Kov-94" target="g6O5Ks7iFWTSRpHq8Kov-65">
          <mxGeometry relative="1" as="geometry">
            <Array as="points">
              <mxPoint x="884" y="471" />
              <mxPoint x="884" y="471" />
            </Array>
          </mxGeometry>
        </mxCell>
        <mxCell id="g6O5Ks7iFWTSRpHq8Kov-124" style="edgeStyle=orthogonalEdgeStyle;rounded=0;orthogonalLoop=1;jettySize=auto;html=1;entryX=0;entryY=0.5;entryDx=0;entryDy=0;endArrow=ERzeroToOne;endFill=0;startArrow=ERzeroToMany;startFill=0;" edge="1" parent="1" source="g6O5Ks7iFWTSRpHq8Kov-39" target="g6O5Ks7iFWTSRpHq8Kov-44">
          <mxGeometry relative="1" as="geometry">
            <Array as="points">
              <mxPoint x="304" y="651" />
              <mxPoint x="304" y="356" />
            </Array>
          </mxGeometry>
        </mxCell>
        <mxCell id="g6O5Ks7iFWTSRpHq8Kov-125" style="edgeStyle=orthogonalEdgeStyle;rounded=0;orthogonalLoop=1;jettySize=auto;html=1;entryX=0;entryY=0.5;entryDx=0;entryDy=0;endArrow=ERmandOne;endFill=0;startArrow=ERzeroToMany;startFill=0;" edge="1" parent="1" source="g6O5Ks7iFWTSRpHq8Kov-60" target="g6O5Ks7iFWTSRpHq8Kov-78">
          <mxGeometry relative="1" as="geometry" />
        </mxCell>
      </root>
    </mxGraphModel>
  </diagram>
</mxfile>
